<svg xmlns="http://www.w3.org/2000/svg" viewBox="0 0 1600 900" preserveAspectRatio="xMidYMid slice"><defs><linearGradient id="g" y1="0" y2="1"><stop stop-color="#20104a"/><stop offset=".55" stop-color="#4b1e62"/><stop offset="1" stop-color="#090514"/></linearGradient><radialGradient id="party"><stop stop-color="#ffdf65" stop-opacity=".45"/><stop offset="1" stop-color="#ff7bd5" stop-opacity="0"/></radialGradient></defs><rect width="1600" height="900" fill="url(#g)"/><circle cx="800" cy="270" r="300" fill="url(#party)"/><g fill="#ff5d8f"><circle cx="170" cy="240" r="45"/><circle cx="1440" cy="230" r="55"/></g><g fill="#58e7ff"><circle cx="320" cy="420" r="38"/><circle cx="1270" cy="430" r="40"/></g><g fill="#ffd34d"><circle cx="520" cy="180" r="34"/><circle cx="1080" cy="170" r="34"/></g><g stroke="#fff" stroke-width="2" opacity=".5"><path d="M170 285v250"/><path d="M1440 285v250"/><path d="M320 458v210"/><path d="M1270 470v200"/><path d="M520 214v260"/><path d="M1080 204v260"/></g><path d="M0 690 Q260 620 520 700T1050 690T1600 700V900H0Z" fill="#0b0615"/><rect x="560" y="600" width="480" height="150" rx="12" fill="#f6c6d7"/><rect x="620" y="510" width="360" height="100" rx="12" fill="#ffe2a1"/><g fill="#ff4d8d"><circle cx="650" cy="490" r="12"/><circle cx="790" cy="470" r="12"/><circle cx="930" cy="490" r="12"/></g><path d="M650 500v-70M790 480v-70M930 500v-70" stroke="#fff" stroke-width="2"/></svg>
